<?xml version="1.0" encoding="UTF-8"?><svg id="Warstwa_2" xmlns="http://www.w3.org/2000/svg" viewBox="0 0 1073 78.27"><defs><style>.cls-1{fill:#d9e5ec;}.cls-2{fill:#007ea8;}</style></defs><g id="Warstwa_6"><path class="cls-1" d="m48.21,78.27c-8.2,0-15.37-.64-21.5-1.93-6.13-1.29-10.86-2.85-14.18-4.68-3.32-1.83-5.97-4.05-7.92-6.66s-3.21-4.96-3.77-7.07c-.55-2.1-.83-4.34-.83-6.71v-1.12h26.93c.59,8,6.41,11.99,22.14,11.99h5.99c5.17,0,7.36-.22,10.76-.66s5.87-1.07,7.43-1.88c1.55-.81,2.59-1.64,3.1-2.49.52-.85.78-1.85.78-3,0-1.63-.44-2.91-1.33-3.86-.89-.95-2.96-1.78-6.21-2.49-3.25-.71-7.94-1.14-14.07-1.27l-8.12-.17-6.06-.13C14.52,45.47,1.11,38.08,1.11,23.99v-.91c0-2.44.33-4.69,1-6.76.66-2.07,1.99-4.13,3.99-6.2,1.99-2.07,4.6-3.81,7.81-5.23,3.21-1.42,7.55-2.59,13.02-3.51s11.82-1.37,19.06-1.37h7.65c7.54,0,14.18.47,19.95,1.42s10.36,2.17,13.8,3.66c3.43,1.49,6.24,3.32,8.42,5.49,2.18,2.17,3.68,4.32,4.49,6.45s1.22,4.42,1.22,6.86v1.02h-26.82c-.15-.81-.35-1.51-.61-2.08-.26-.58-.87-1.34-1.83-2.29-.96-.95-2.22-1.73-3.77-2.34-1.55-.61-3.86-1.15-6.93-1.63-3.07-.47-5.41-.71-9.48-.71h-3.85c-6.21,0-10.11.36-13.44,1.07s-5.34,1.46-6.04,2.24-1.05,1.85-1.05,3.2.39,2.34,1.16,3.15c.78.81,2.62,1.56,5.54,2.24,2.92.68,7.04,1.05,12.36,1.12l6.07.09,7.78.11c15.37.27,26.47,2.19,33.3,5.74,6.83,3.56,10.25,9.13,10.25,16.72v1.42c0,2.78-.33,5.27-1,7.47-.66,2.2-2.03,4.46-4.1,6.76-2.07,2.3-4.82,4.24-8.26,5.79-3.44,1.56-8.13,2.83-14.07,3.81-5.95.98-12.91,1.47-20.89,1.47h-7.65Z"/><path class="cls-1" d="m224.18,76.8h-25.34l-7.07-13.67h-53.89l-7.07,13.67h-25.34L145.65,2.01h38.34l40.18,74.79Zm-77.61-30.56h36.53l-14.23-27.46h-8.06l-14.23,27.46h0Z"/><path class="cls-1" d="m230.51,1.32h36.68l28.48,47.06L324.26,1.32h35.35v75.62h-25.49V24.6l-32.47,52.35h-13.85l-32.47-52.35v52.35h-24.82V1.32Z"/><path class="cls-1" d="m408.26,75.98L365.92,1.32h28.88l29.97,54.89L452.89,1.32h26.47l-39.38,74.65h-31.73Z"/><path class="cls-2" d="m762.69,37.1v2.97c0,2.11-.13,4.16-.4,6.14-.27,1.98-.86,4.24-1.79,6.78-.93,2.54-2.12,4.89-3.58,7.03-1.46,2.14-3.53,4.29-6.21,6.44-2.69,2.15-5.79,3.96-9.3,5.45-3.51,1.48-7.91,2.69-13.18,3.61-5.27.93-11.12,1.39-17.55,1.39h-181.03c-6.43,0-12.3-.46-17.6-1.39-5.3-.92-9.71-2.13-13.23-3.61-3.51-1.49-6.61-3.3-9.3-5.45-2.69-2.14-4.77-4.29-6.27-6.44-1.49-2.15-2.69-4.49-3.58-7.03-.9-2.54-1.48-4.8-1.74-6.78-.27-1.98-.4-4.03-.4-6.14v-2.97c0-2.18.13-4.24.4-6.19.26-1.95.84-4.19,1.74-6.73.89-2.54,2.09-4.87,3.58-6.98,1.49-2.11,3.56-4.23,6.22-6.34,2.65-2.11,5.75-3.9,9.3-5.35,3.55-1.45,7.97-2.62,13.28-3.52,5.3-.89,11.17-1.34,17.6-1.34h181.03c6.43,0,12.27.45,17.5,1.34,5.24.89,9.63,2.06,13.18,3.52,3.55,1.45,6.65,3.23,9.3,5.35,2.65,2.11,4.72,4.22,6.22,6.34,1.49,2.11,2.7,4.42,3.63,6.93.93,2.51,1.52,4.75,1.79,6.73.26,1.98.4,4.06.4,6.24Zm-24.27.69c0-1.85-.23-3.6-.7-5.25-.46-1.65-1.36-3.37-2.69-5.15-1.33-1.78-3.05-3.3-5.17-4.56-2.12-1.25-5.01-2.29-8.65-3.12-3.3-.75-7.09-1.16-11.36-1.23-.45,0-177.66-.01-178.12-.01-19.96,0-29.93,6.44-29.93,19.31v1.19c0,2.38.41,4.62,1.24,6.74.83,2.11,2.24,4.22,4.23,6.34,1.99,2.11,5.07,3.79,9.25,5.05,4.18,1.25,9.25,1.88,15.22,1.88.46,0,177.67,0,178.12-.01,5.31-.09,9.88-.7,13.7-1.82,4.14-1.22,7.24-2.87,9.3-4.95,2.06-2.08,3.5-4.18,4.33-6.29.83-2.11,1.24-4.36,1.24-6.73v-1.39Z"/><path class="cls-1" d="m803.27,1.32v56.82h57.29v18.8h-83.11V1.32h25.82Z"/><path class="cls-1" d="m884.28,75.98L841.94,1.32h28.88l29.97,54.89,28.11-54.89h26.47l-39.38,74.65h-31.72Z"/><path class="cls-1" d="m1015.04,0c7.17,0,13.67.46,19.5,1.37s10.73,2.12,14.68,3.61c3.95,1.49,7.41,3.32,10.36,5.49s5.26,4.34,6.93,6.51c1.66,2.17,3.01,4.54,4.04,7.12,1.03,2.58,1.7,4.88,2,6.91.3,2.03.44,4.17.44,6.4v3.05c0,2.17-.15,4.27-.44,6.3-.3,2.03-.96,4.35-2,6.96s-2.36,5.02-3.99,7.22c-1.63,2.2-3.93,4.4-6.93,6.61-2.99,2.2-6.45,4.07-10.36,5.59-3.92,1.52-8.81,2.76-14.68,3.71-5.87.95-12.39,1.42-19.56,1.42h-3.51c-7.17,0-13.7-.47-19.61-1.42-5.91-.95-10.82-2.19-14.74-3.71-3.92-1.53-7.37-3.39-10.36-5.59-2.99-2.2-5.32-4.4-6.98-6.61-1.66-2.2-2.99-4.61-3.99-7.22-1-2.61-1.64-4.93-1.94-6.96-.3-2.03-.44-4.13-.44-6.3v-3.05c0-2.24.15-4.35.44-6.35.3-2,.94-4.3,1.94-6.91,1-2.61,2.33-5,3.99-7.17,1.66-2.17,3.97-4.34,6.93-6.51,2.95-2.17,6.41-4,10.36-5.49,3.95-1.49,8.88-2.69,14.79-3.61s12.45-1.37,19.61-1.37h3.51Zm30.92,38.12c0-1.9-.26-3.69-.78-5.39-.52-1.69-1.51-3.46-2.99-5.29-1.48-1.83-3.4-3.39-5.76-4.68-2.36-1.29-5.58-2.35-9.64-3.2-3.34-.7-7.13-1.11-11.37-1.23-.91-.03-2.85-.03-3.48-.02-20.95.38-31.43,6.98-31.43,19.8v1.22c0,2.44.46,4.74,1.39,6.91.92,2.17,2.49,4.34,4.71,6.51,2.22,2.17,5.65,3.9,10.31,5.18,4.3,1.19,9.44,1.83,15.44,1.92.5,0,1.86,0,2.64-.02,5.55-.14,10.35-.75,14.4-1.85,4.62-1.25,8.07-2.95,10.36-5.08s3.9-4.29,4.82-6.45c.92-2.17,1.39-4.47,1.39-6.91v-1.42Z"/></g></svg>