<svg width="76" height="67" viewBox="0 0 76 67" fill="none" xmlns="http://www.w3.org/2000/svg">
<path d="M17.075 26.0125L38 66.925L58.925 26.0125H17.075ZM15.125 4.0375L0.5 23.65H14.075L15.125 4.0375ZM38 1.825L17.8625 23.65H58.1375L38 1.825ZM0.65 26.0125L34.7375 65.6875L14.45 26.0125H0.65ZM36.2375 0.25H35.675L17.525 2.1625C17.5427 2.22375 17.5427 2.28875 17.525 2.35L16.5125 21.6625L36.2375 0.25ZM41.2625 65.6875L75.35 26.0125H61.55L41.2625 65.6875ZM58.4375 2.425C58.4198 2.36375 58.4198 2.29875 58.4375 2.2375L43.4375 0.6625L39.6875 0.25L59.4125 21.6625L58.4375 2.425ZM60.875 4.0375L61.925 23.65H75.5L67.175 12.475L60.875 4.0375Z" fill="#EAB308"/>
</svg>
