<svg width="71" height="50" viewBox="0 0 71 50" fill="none" xmlns="http://www.w3.org/2000/svg">
<path d="M63.91 9.59999C62.5173 7.02001 60.5275 4.84841 58.1239 3.28501C55.7203 1.72161 52.9799 0.816626 50.155 0.65332C46.826 0.807244 43.665 2.22832 41.265 4.64999C39.2805 6.53238 37.4968 8.63467 35.945 10.92C34.2656 8.60869 32.3529 6.4942 30.24 4.61332C27.4458 2.06302 23.8659 0.656636 20.16 0.65332C17.2026 0.873669 14.3472 1.87754 11.8616 3.57072C9.37608 5.26391 7.3419 7.5909 5.94997 10.3333C2.06862 16.9518 0.00943548 24.5656 -2.74299e-05 32.3333C-0.0170293 34.3568 0.194439 36.3752 0.629973 38.3467C0.981483 40.1047 1.60828 41.7897 2.48497 43.3333C3.54145 45.2372 5.0837 46.7948 6.93851 47.8311C8.79332 48.8675 10.8872 49.3415 12.985 49.2C17.36 49.2 20.65 47.1467 24.535 41.8667C27.4457 37.6902 30.0323 33.276 32.27 28.6667L34.475 24.56C34.685 24.23 34.86 23.9 35.035 23.57L35.56 24.4867L41.825 35.4867C43.8302 39.1539 46.2382 42.5627 49 45.6433C50.161 46.8731 51.5549 47.8347 53.0921 48.4662C54.6292 49.0977 56.2754 49.3851 57.925 49.31C59.6462 49.3799 61.3575 49.005 62.9078 48.2185C64.4581 47.432 65.8 46.258 66.815 44.8C67.0494 44.4749 67.26 44.1317 67.445 43.7733C67.869 43.0372 68.232 42.2644 68.53 41.4633L68.95 40.18C69.4196 38.8227 69.771 37.4236 70 36C70.0648 34.7787 70.0648 33.5546 70 32.3333C70.1484 24.293 68.03 16.3854 63.91 9.59999ZM28.49 22.6533C26.25 26.32 22.995 31.8567 20.195 35.89C16.695 40.9133 14.91 41.4267 12.95 41.4267C12.1328 41.4427 11.3268 41.2261 10.618 40.7999C9.90911 40.3737 9.32398 39.7539 8.92497 39.0067C7.94459 37.0947 7.47312 34.9417 7.55997 32.7733C7.48167 26.168 9.15364 19.6694 12.39 14C13.1466 12.511 14.2418 11.2403 15.5787 10.3002C16.9156 9.36014 18.453 8.77961 20.055 8.60999C21.6104 8.68606 23.1303 9.12361 24.5044 9.89096C25.8785 10.6583 27.0726 11.7362 28 13.0467C29.2552 14.5747 30.4239 16.1786 31.5 17.85L28.49 22.6533ZM57.96 41.4267C56.28 41.4267 54.985 40.73 53.13 38.3833C50.1137 34.1065 47.355 29.6367 44.87 25L43.05 21.8467C41.79 19.61 40.565 17.5933 39.55 15.7967C39.7276 15.4535 39.9264 15.1228 40.145 14.8067C43.435 9.70999 46.34 6.84999 49.945 6.84999C51.7681 7.01816 53.5217 7.66368 55.0445 8.72724C56.5674 9.79081 57.8106 11.2383 58.66 12.9367C61.9486 18.8763 63.6079 25.652 63.455 32.5167C63.315 37.32 62.265 41.4267 57.96 41.4267Z" fill="#F43F5E"/>
</svg>
