<svg width="70" height="70" viewBox="0 0 70 70" fill="none" xmlns="http://www.w3.org/2000/svg">
<path d="M4.66666 69C4.95893 69.0353 5.25439 69.0353 5.54666 69L20.2133 65.3333C20.864 65.1787 21.4599 64.849 21.9367 64.38L67 19.17C68.3658 17.796 69.1325 15.9374 69.1325 14C69.1325 12.0626 68.3658 10.204 67 8.83001L61.2067 3.00001C60.5256 2.31818 59.7168 1.77729 58.8266 1.40824C57.9363 1.0392 56.982 0.849243 56.0183 0.849243C55.0546 0.849243 54.1004 1.0392 53.2101 1.40824C52.3198 1.77729 51.5111 2.31818 50.83 3.00001L5.76667 48.0633C5.29289 48.5423 4.95174 49.1361 4.77667 49.7867L1.11 64.4533C0.97821 64.9278 0.943329 65.4239 1.00743 65.9121C1.07154 66.4003 1.23332 66.8706 1.48312 67.2949C1.73293 67.7192 2.06563 68.0889 2.4614 68.3818C2.85717 68.6748 3.30788 68.885 3.78666 69C4.07893 69.0353 4.3744 69.0353 4.66666 69ZM56 8.17001L61.83 14L56 19.83L50.2067 14L56 8.17001ZM11.67 52.5367L45 19.17L50.83 25L17.4633 58.3667L9.72667 60.2733L11.67 52.5367Z" fill="#0284C7"/>
</svg>
