<?xml version="1.0" encoding="utf-8"?>
<!-- Generator: Adobe Illustrator 25.0.0, SVG Export Plug-In . SVG Version: 6.00 Build 0)  -->
<svg version="1.1" xmlns="http://www.w3.org/2000/svg" xmlns:xlink="http://www.w3.org/1999/xlink" x="0px" y="0px"
	 viewBox="0 0 2000 1153.57" style="enable-background:new 0 0 2000 1153.57;" xml:space="preserve">
<style type="text/css">
	.st0{fill:#36A9E1;}
	.st1{display:none;}
	.st2{display:inline;}
	.st3{fill:#009FE3;}
</style>
<g id="sygnet">
	<path class="st0" d="M1267.94,1153.57H86.14c-50.07,0-81.37-54.2-56.33-97.57L620.71,32.52c25.04-43.36,87.62-43.36,112.66,0
		L1324.27,1056C1349.31,1099.37,1318.01,1153.57,1267.94,1153.57z"/>
	<path class="st0" d="M1903.86,1153.57h-301.15c-26.8,0-51.57-14.3-64.97-37.51L1114.7,383.33c-13.4-23.21-13.4-51.81,0-75.03
		L1265.28,47.5c28.88-50.02,101.07-50.02,129.95,0l573.61,993.53C1997.71,1091.05,1961.62,1153.57,1903.86,1153.57z"/>
</g>
<g id="Warstwa_2" class="st1">
</g>
<g id="Warstwa_3" class="st1">
</g>
</svg>
