<?xml version="1.0" encoding="utf-8"?>
<!-- Generator: Adobe Illustrator 27.1.1, SVG Export Plug-In . SVG Version: 6.00 Build 0)  -->
<svg version="1.1" baseProfile="tiny" id="Warstwa_1"
	 xmlns="http://www.w3.org/2000/svg" xmlns:xlink="http://www.w3.org/1999/xlink" x="0px" y="0px" viewBox="0 0 2000 2000"
	 overflow="visible" xml:space="preserve">
<g id="sygnet">
	<path fill="#36A9E1" d="M1267.9,1576.8H86.1c-50.1,0-81.4-54.2-56.3-97.6L620.7,455.7c25-43.4,87.6-43.4,112.7,0l590.9,1023.5
		C1349.3,1522.6,1318,1576.8,1267.9,1576.8z"/>
	<path fill="#36A9E1" d="M1903.9,1576.8h-301.2c-26.8,0-51.6-14.3-65-37.5l-423-732.7c-13.4-23.2-13.4-51.8,0-75l150.6-260.8
		c28.9-50,101.1-50,129.9,0l573.6,993.5C1997.7,1514.3,1961.6,1576.8,1903.9,1576.8z"/>
</g>
</svg>
