<svg width="72" height="72" viewBox="0 0 72 72" fill="none" xmlns="http://www.w3.org/2000/svg">
<path d="M65.3134 25.5887C65.3104 25.5857 65.3134 25.5857 65.3134 25.5887L65.3045 25.5768L65.3015 25.5738V25.5709C65.1177 25.3003 64.8805 25.0702 64.6045 24.8946L37.4235 6.86095C37.0258 6.60687 36.5637 6.47186 36.0917 6.47186C35.6198 6.47186 35.1577 6.60687 34.7599 6.86095L7.57302 24.9035C7.22974 25.1168 6.9478 25.4157 6.75489 25.7709C6.56197 26.126 6.4647 26.5252 6.47262 26.9293V45.2003C6.46515 45.6722 6.6006 46.1355 6.86117 46.5291V46.532L6.8671 46.538L6.89676 46.5825V46.5884H6.89973L6.90269 46.5914L6.90566 46.5943C7.09252 46.8553 7.32091 47.0689 7.57599 47.232L34.7599 65.2716C35.1507 65.5409 35.6142 65.6847 36.0887 65.6839C36.5654 65.6865 37.0313 65.5426 37.4235 65.2716L64.6074 47.232C64.95 47.0165 65.2312 46.7163 65.4239 46.3604C65.6167 46.0045 65.7145 45.6049 65.7078 45.2003V26.9293C65.7152 26.4528 65.5776 25.9853 65.3134 25.5887ZM38.4497 13.2143L59.0728 26.8967L49.6318 33.161L38.4468 25.6391V13.2143H38.4497ZM33.7278 13.2143V25.6391L22.5427 33.161L13.1077 26.8997L33.7278 13.2143ZM11.2005 31.3013L18.3042 36.0173L11.2005 40.7957V31.3013ZM33.7278 58.9183L13.084 45.224L22.5605 38.847L33.7278 46.2562V58.9183ZM36.0858 42.1512L26.8079 35.9877L36.0858 29.7441L45.3725 35.9877L36.0858 42.1512ZM38.4497 58.9183V46.2532L49.6199 38.844L59.0906 45.221L38.4497 58.9183ZM60.9829 40.7957L53.8762 36.0173L60.9829 31.3013V40.7957Z" fill="#9CA3AF"/>
</svg>
