<svg width="81" height="81" viewBox="0 0 81 81" fill="none" xmlns="http://www.w3.org/2000/svg">
<path d="M57.4415 32.8383L73.5243 39.8395V39.4762C73.2931 38.6836 72.5996 37.9901 71.2126 36.6031L64.6077 29.9983L57.7717 32.8714L57.4415 32.8383ZM41.1606 24.7804C41.434 25.2594 41.6134 25.7862 41.6889 26.3326L51.5962 30.5927C51.8913 30.3928 52.2139 30.2371 52.5539 30.1304L54.1391 20.2231L47.5342 13.6183L41.0945 24.5162C41.0945 24.5162 41.0945 24.6814 41.1606 24.7804ZM35.9097 23.9879C36.366 23.6194 36.9047 23.3668 37.4798 23.2518C38.0548 23.1368 38.6492 23.1627 39.2121 23.3274H39.3772L46.5105 12.2973L44.3309 10.1177C42.9439 8.73068 42.2504 8.03717 41.4578 7.806C40.7824 7.58184 40.0526 7.58184 39.3772 7.806C38.5847 8.03717 37.8912 8.73068 36.5041 10.1177L26.5969 20.025C27.6206 20.4873 34.8529 23.5255 35.7776 23.9548L35.9097 23.9879ZM25.6062 41.4577H26.4978C26.8162 41.4257 27.1371 41.4257 27.4555 41.4577L35.3153 29.3047V29.1066C34.9078 28.7056 34.6114 28.2056 34.4551 27.6557C34.2988 27.1058 34.288 26.5247 34.4236 25.9693L30.5928 23.9879L24.9787 21.5771L17.3831 29.3047L25.6722 41.3916L25.6062 41.4577ZM50.7706 33.3998V33.1356C50.7522 32.982 50.7522 32.8268 50.7706 32.6732L41.3257 28.4791H41.1606C40.8429 28.9586 40.4109 29.3515 39.9036 29.6224C39.3963 29.8934 38.8296 30.0339 38.2544 30.0313H37.693C37.693 30.0313 37.5279 30.0313 37.4949 30.1964L29.7012 42.1512V42.3163L50.6055 33.3998C50.6055 33.3998 50.7706 33.4658 50.7706 33.3998ZM55.2619 30.3945C55.5863 30.5456 55.878 30.7588 56.1205 31.022L62.7253 28.248L56.4838 22.0725L55.1628 30.2294L55.2619 30.3945ZM47.6993 48.69C47.9609 48.2019 48.3522 47.7956 48.83 47.5159C49.3079 47.2362 49.8537 47.0939 50.4073 47.1048V46.9397L52.1906 35.8105L51.8934 35.5463L30.5928 44.2977C30.696 44.5903 30.7842 44.8879 30.857 45.1894L47.6993 48.69ZM47.5672 50.8365L30.3286 47.1048V47.3029L45.3546 70.2217L46.7416 68.8017C47.237 65.7635 49.0864 54.5022 49.3175 53.2143C48.8439 53.0048 48.4333 52.6752 48.1263 52.2581C47.8193 51.841 47.6266 51.351 47.5672 50.8365ZM53.0162 51.8933C52.7039 52.2885 52.2942 52.5958 51.8274 52.785L49.7138 65.7965L61.7346 53.7096L53.0162 51.8933ZM56.5498 34.9519C56.5189 34.9372 56.485 34.9296 56.4508 34.9296C56.4165 34.9296 56.3826 34.9372 56.3517 34.9519C55.8539 35.5764 55.1302 35.9797 54.3372 36.0747V36.2729L52.5209 47.5011C52.8395 47.7462 53.1037 48.0547 53.297 48.4071C53.4902 48.7595 53.6083 49.1482 53.6437 49.5486H53.8418L63.584 51.5631L71.1135 44.0335C71.922 43.3055 72.6424 42.4853 73.2601 41.5898L56.5498 34.9519ZM28.2811 49.0532C27.3632 49.3835 26.3589 49.3835 25.441 49.0532L21.4121 55.3278L36.9004 70.7831C37.6818 71.7588 38.661 72.5579 39.7735 73.1279C40.4489 73.352 41.1787 73.352 41.8541 73.1279C42.7568 72.7279 43.5497 72.1161 44.1658 71.3446L28.6774 48.8881L28.2811 49.0532ZM21.9735 45.7508C21.9735 45.7508 22.1716 45.7508 22.1716 45.5857C22.1716 45.4206 22.1716 45.5857 21.9735 45.5857L8.30148 42.7456C8.83126 43.3691 9.39344 43.9644 9.98571 44.5289L14.477 49.0202L21.9735 45.7178V45.7508ZM22.8982 43.5712C23.069 43.2405 23.2921 42.9394 23.5587 42.6796V42.4814C21.0158 38.5185 18.3739 34.6877 15.7319 30.8239L9.95269 36.6031C8.56567 37.9901 7.87217 38.6836 7.641 39.4762C7.51434 39.802 7.45806 40.1509 7.47587 40.5L22.8982 43.8024V43.5712ZM23.4596 47.9634C23.3717 47.8613 23.2942 47.7507 23.2284 47.6332L16.0291 50.4072L19.5958 54.0399L23.4596 48.0295C23.4596 48.0295 23.4926 47.9634 23.4596 47.9634Z" fill="#9CA3AF"/>
</svg>
