<svg width="79" height="79" viewBox="0 0 79 79" fill="none" xmlns="http://www.w3.org/2000/svg">
<path d="M60.5683 31.4293C58.1375 30.5921 55.9919 29.0868 54.3774 27.086C52.5981 24.8567 50.3325 23.064 47.7539 21.8449C45.1753 20.6258 42.352 20.0127 39.5 20.0524C35.6636 19.7807 31.8655 20.964 28.8622 23.3667C25.8589 25.7693 23.8708 29.215 23.2937 33.0175C24.4303 31.1157 26.141 29.6235 28.1796 28.7556C30.2181 27.8878 32.4795 27.689 34.6381 28.188C37.0648 29.0496 39.207 30.5636 40.829 32.5637C42.618 34.7751 44.8879 36.5493 47.466 37.7513C50.0441 38.9533 52.8623 39.5514 55.7064 39.5C59.5428 39.7717 63.3409 38.5884 66.3442 36.1858C69.3474 33.7832 71.3356 30.3375 71.9127 26.535C70.7967 28.4595 69.0915 29.9743 67.0487 30.8556C65.006 31.7369 62.734 31.938 60.5683 31.4293ZM18.4318 47.5708C20.8626 48.408 23.0082 49.9133 24.6226 51.9141C26.4019 54.1433 28.6675 55.936 31.2462 57.1551C33.8248 58.3742 36.6481 58.9873 39.5 58.9476C43.3365 59.2193 47.1346 58.036 50.1378 55.6334C53.1411 53.2308 55.1293 49.7851 55.7064 45.9825C54.5697 47.8844 52.8591 49.3766 50.8205 50.2444C48.7819 51.1123 46.5206 51.311 44.3619 50.812C41.9352 49.9505 39.7931 48.4364 38.1711 46.4363C36.3773 44.2304 34.1064 42.4601 31.5295 41.2586C28.9525 40.0572 26.1366 39.4559 23.2937 39.5C19.4573 39.2283 15.6592 40.4116 12.6559 42.8142C9.65263 45.2169 7.66448 48.6625 7.0874 52.4651C8.20339 50.5405 9.90862 49.0258 11.9514 48.1445C13.9941 47.2632 16.266 47.062 18.4318 47.5708Z" fill="#9CA3AF"/>
</svg>
