<svg width="72" height="72" viewBox="0 0 72 72" fill="none" xmlns="http://www.w3.org/2000/svg">
<path d="M57.0746 9.43851H14.126C12.7415 9.43851 11.4137 9.9885 10.4347 10.9675C9.45575 11.9465 8.90576 13.2743 8.90576 14.6588V57.6073C8.90576 58.9919 9.45575 60.3196 10.4347 61.2986C11.4137 62.2776 12.7415 62.8276 14.126 62.8276H57.0746C57.7601 62.8276 58.439 62.6926 59.0723 62.4303C59.7057 62.1679 60.2811 61.7834 60.7659 61.2986C61.2506 60.8139 61.6352 60.2384 61.8975 59.6051C62.1598 58.9717 62.2949 58.2929 62.2949 57.6073V14.6588C62.2949 13.9732 62.1598 13.2944 61.8975 12.6611C61.6352 12.0277 61.2506 11.4522 60.7659 10.9675C60.2811 10.4827 59.7057 10.0982 59.0723 9.83588C58.439 9.57353 57.7601 9.43851 57.0746 9.43851ZM39.8714 39.0991H33.1978V58.2006H27.8886V39.0991H21.2149V34.7687H39.8714V39.0991ZM57.0746 54.7599C56.6452 55.6729 55.9533 56.4371 55.0873 56.9548C54.1762 57.5156 53.1715 57.9074 52.1213 58.1116C50.9504 58.3534 49.7576 58.4727 48.562 58.4675C47.3387 58.4664 46.1179 58.3573 44.9138 58.1412C43.8903 57.9317 42.8949 57.6032 41.9477 57.1624V52.0905L41.7697 51.9125H41.9477V52.1201C42.8398 52.8162 43.8424 53.3576 44.9138 53.7218C45.9836 54.1291 47.1208 54.3304 48.2654 54.315C48.8635 54.3255 49.4608 54.2657 50.045 54.1371C50.4839 54.0344 50.9041 53.8643 51.2908 53.6328C51.5935 53.4483 51.8478 53.194 52.0323 52.8913C52.2149 52.5465 52.2952 52.1568 52.2637 51.7679C52.2322 51.379 52.0901 51.0073 51.8543 50.6964C51.5755 50.3055 51.2228 49.973 50.8162 49.7176C50.3225 49.3705 49.796 49.0724 49.2442 48.8278L47.2569 47.9973C45.6838 47.3494 44.29 46.332 43.1934 45.0312C42.2757 43.925 41.7909 42.5232 41.829 41.0864C41.7945 39.9948 42.0395 38.9126 42.5409 37.9424C43.0194 37.0967 43.6899 36.3753 44.4985 35.8365C45.3994 35.2371 46.4059 34.8144 47.4646 34.5907C48.6219 34.3243 49.8066 34.1949 50.9942 34.2051C52.0756 34.19 53.1566 34.2594 54.2272 34.4127C55.1179 34.552 55.9924 34.7806 56.8373 35.0949V39.9889C56.4469 39.7106 56.0296 39.4722 55.5916 39.2771C55.1199 39.0741 54.6342 38.9056 54.1382 38.7729C53.6628 38.6337 53.1767 38.5345 52.6848 38.4763C52.231 38.4335 51.7742 38.4335 51.3204 38.4763C50.7616 38.467 50.2037 38.5268 49.6595 38.6542C49.213 38.7478 48.7831 38.9078 48.384 39.1288C48.0726 39.3123 47.8085 39.5663 47.6129 39.8703C47.4353 40.1657 47.3429 40.5045 47.3459 40.8491C47.3387 41.217 47.442 41.5787 47.6425 41.8872C47.8862 42.2241 48.1874 42.5153 48.5323 42.7474C48.9505 43.0803 49.4089 43.3593 49.8967 43.5779L51.7654 44.4084C52.6245 44.7636 53.4572 45.1799 54.2569 45.6541C54.96 46.0389 55.6002 46.5291 56.1551 47.1075C56.6989 47.6344 57.1236 48.2715 57.4009 48.9761C57.6853 49.7858 57.8258 50.6391 57.8161 51.4973C57.7949 52.6051 57.5423 53.6962 57.0746 54.7006V54.7599Z" fill="#9CA3AF"/>
</svg>
